<svg xmlns:inkscape="http://www.inkscape.org/namespaces/inkscape" xmlns:sodipodi="http://sodipodi.sourceforge.net/DTD/sodipodi-0.dtd" xmlns="http://www.w3.org/2000/svg" xmlns:svg="http://www.w3.org/2000/svg" width="218" height="119" viewBox="0 0 218 119" version="1.1" id="svg1" sodipodi:docname="21200afb-7e10-41c0-ab19-5c80b00b752a.svg">
  <defs id="defs1" fill="#4f90a6"/>
  <sodipodi:namedview id="namedview1" pagecolor="#ffffff" bordercolor="#4f90a6" borderopacity="0.25" inkscape:showpageshadow="2" inkscape:pageopacity="0.0" inkscape:pagecheckerboard="0" inkscape:deskcolor="#d1d1d1" fill="#4f90a6"/>
  <path d="M 60 25.988 C 60 26.616, 73.566 27.071, 97.250 27.238 L 134.500 27.500 134.767 52.250 C 134.995 73.333, 135.255 77, 136.517 77 C 137.789 77, 138 73.308, 138 51 L 138 25 99 25 C 73.987 25, 60 25.354, 60 25.988 M 54 56.500 L 54 83 67 83 C 79.333 83, 80 82.897, 80 81 C 80 79.190, 79.333 79, 73 79 L 66 79 66 76.122 C 66 72.537, 64.243 71.008, 60.440 71.286 L 57.500 71.500 57.212 58 C 56.844 40.758, 56.910 40.500, 61.706 40.500 C 65.280 40.500, 65.529 40.297, 66 37 L 66.500 33.500 93.500 33.500 L 120.500 33.500 121 37 C 121.461 40.226, 121.774 40.504, 125 40.550 L 128.500 40.601 128.776 56.415 L 129.052 72.230 126.430 71.572 C 123.059 70.726, 121 72.451, 121 76.122 L 121 79 113.594 79 C 106.680 79, 106.222 79.133, 106.710 81 C 107.199 82.869, 108.074 83, 120.117 83 L 133 83 133 56.500 L 133 30 93.500 30 L 54 30 54 56.500 M 69 38 C 69 40.772, 65.503 44, 62.500 44 L 60 44 60 56.500 L 60 69 62.943 69 C 66.078 69, 69 72.002, 69 75.223 C 69 76.756, 69.958 77, 75.987 77 L 82.973 77 84.410 73.560 L 85.848 70.120 93.174 70.310 C 100.383 70.497, 100.524 70.552, 102 73.728 C 103.487 76.928, 103.565 76.957, 110.750 76.978 C 117.695 76.999, 118 76.901, 118 74.655 C 118 71.625, 120.937 69, 124.329 69 L 127 69 127 56.500 L 127 44 124.500 44 C 121.497 44, 118 40.772, 118 38 C 118 36.054, 117.333 36, 93.500 36 C 69.667 36, 69 36.054, 69 38 M 79.248 41.250 C 79.544 42.139, 83.249 42.583, 92.082 42.789 C 105.066 43.091, 109.489 42.601, 108.482 40.971 C 107.525 39.422, 78.733 39.697, 79.248 41.250 M 71.244 49.231 C 71.779 50.838, 115.999 51.104, 116.001 49.500 C 116.002 48.871, 107.627 48.400, 93.412 48.231 C 75.510 48.018, 70.908 48.225, 71.244 49.231 M 70.496 57.007 C 69.371 58.827, 72.303 59.043, 94.441 58.770 C 110.871 58.567, 116.438 58.188, 116.751 57.250 C 117.283 55.651, 71.482 55.410, 70.496 57.007 M 71 65.500 C 71 66.846, 73.806 67.004, 93.501 66.769 C 107.656 66.600, 116.002 66.129, 116.002 65.500 C 116.002 64.871, 107.656 64.400, 93.501 64.231 C 73.806 63.996, 71 64.154, 71 65.500 M 86.430 75.250 C 86.042 76.487, 84.880 78.582, 83.847 79.904 C 82.227 81.978, 82.161 82.528, 83.364 83.904 C 84.131 84.782, 85.457 86.880, 86.310 88.566 C 87.776 91.464, 88.170 91.626, 93.527 91.539 C 98.796 91.453, 99.290 91.238, 100.578 88.473 C 101.339 86.838, 102.531 84.713, 103.226 83.750 C 104.246 82.338, 104.242 81.662, 103.209 80.250 C 102.504 79.287, 101.395 77.263, 100.744 75.750 C 99.636 73.172, 99.173 73, 93.348 73 C 87.780 73, 87.062 73.234, 86.430 75.250 M 90.686 77.116 C 85.530 80.115, 87.624 87.941, 93.595 87.985 C 98.587 88.021, 100.899 80.444, 96.777 77.557 C 94.193 75.746, 93.168 75.672, 90.686 77.116 M 91.011 80.487 C 89.257 82.600, 90.508 85, 93.362 85 C 96.147 85, 97.573 82.395, 95.895 80.373 C 94.412 78.586, 92.552 78.630, 91.011 80.487 M 90 97.325 C 90 100.472, 90.187 100.646, 93.497 100.575 C 96.760 100.505, 96.994 100.282, 96.997 97.250 C 97 94.202, 96.783 94, 93.500 94 C 90.202 94, 90 94.192, 90 97.325" stroke="none" fill="#4f90a6" fill-rule="evenodd" id="path1"/>
</svg>