<svg xmlns:inkscape="http://www.inkscape.org/namespaces/inkscape" xmlns:sodipodi="http://sodipodi.sourceforge.net/DTD/sodipodi-0.dtd" xmlns="http://www.w3.org/2000/svg" xmlns:svg="http://www.w3.org/2000/svg" width="76" height="76" viewBox="0 0 76 76" version="1.1" id="svg1" sodipodi:docname="a3909222-1780-4618-a53a-262bcded2445.svg">
  <defs id="defs1" fill="#4f90a6"/>
  <sodipodi:namedview id="namedview1" pagecolor="#ffffff" bordercolor="#4f90a6" borderopacity="0.25" inkscape:showpageshadow="2" inkscape:pageopacity="0.0" inkscape:pagecheckerboard="0" inkscape:deskcolor="#d1d1d1" fill="#4f90a6"/>
  <path d="M 36 31.187 L 36 45.374 39 42.500 C 41.987 39.638, 42 39.577, 42 28.313 L 42 17 39 17 L 36 17 36 31.187 M 25 33.655 C 25 41.950, 25.075 42.242, 26.814 40.669 C 28.213 39.403, 28.899 39.299, 29.814 40.214 C 30.729 41.129, 31 39.525, 31 33.200 L 31 25 28 25 L 25 25 25 33.655 M 14 43.187 L 14 52.374 17 49.500 C 19.713 46.901, 20 46.022, 20 40.313 L 20 34 17 34 L 14 34 14 43.187 M 46.530 36.034 C 48.340 38.034, 48.273 38.166, 42.467 44.034 C 39.219 47.315, 36.064 50, 35.456 50 C 34.847 50, 33.292 48.875, 32 47.500 C 30.708 46.125, 29.154 45, 28.547 45 C 27.939 45, 24.543 47.925, 21 51.500 C 14.583 57.975, 14.570 58, 17.576 58 C 19.774 58, 21.644 56.925, 24.461 54.040 L 28.327 50.080 31.699 53.040 C 33.553 54.668, 35.391 55.998, 35.785 55.997 C 36.178 55.995, 40.006 52.792, 44.291 48.878 C 51.854 41.971, 52.139 41.816, 54.041 43.537 C 55.964 45.278, 56 45.207, 56 39.655 L 56 34 50.345 34 C 44.722 34, 44.700 34.012, 46.530 36.034" stroke="none" fill="#4f90a6" fill-rule="evenodd" id="path1"/>
</svg>