<?xml version="1.0" encoding="UTF-8" standalone="no"?>
<svg
   width="172"
   height="131"
   viewBox="0 0 172 131"
   version="1.1"
   id="svg1"
   sodipodi:docname="80dba9f4-66f6-4336-9ddb-e52b10e1a0ff.svg"
   xmlns:inkscape="http://www.inkscape.org/namespaces/inkscape"
   xmlns:sodipodi="http://sodipodi.sourceforge.net/DTD/sodipodi-0.dtd"
   xmlns="http://www.w3.org/2000/svg"
   xmlns:svg="http://www.w3.org/2000/svg">
  <defs
     id="defs1" />
  <sodipodi:namedview
     id="namedview1"
     pagecolor="#ffffff"
     bordercolor="#000000"
     borderopacity="0.25"
     inkscape:showpageshadow="2"
     inkscape:pageopacity="0.0"
     inkscape:pagecheckerboard="0"
     inkscape:deskcolor="#d1d1d1" />
  <path
     d="M 61.233 29.111 C 49.476 31.070, 37.554 39.999, 31.996 51.008 C 20.034 74.704, 31.713 102.207, 57.091 110.105 C 77.525 116.465, 100.201 105.320, 108.172 85 C 109.824 80.788, 110.341 77.275, 110.380 70 C 110.425 61.695, 110.088 59.757, 107.699 54.592 L 104.966 48.684 102.602 50.904 L 100.239 53.124 102.211 58.312 C 105.011 65.677, 104.427 77.431, 100.885 85 C 97.603 92.014, 91.014 98.603, 84 101.885 C 76.229 105.521, 64.722 106.007, 56.798 103.033 C 50.653 100.726, 42.401 94.003, 39.039 88.563 C 29.427 73.011, 34.126 51.509, 49.376 41.259 C 58.700 34.993, 69.028 33.508, 79.852 36.877 L 85.883 38.754 88.102 36.392 L 90.321 34.029 85.640 31.959 C 81.260 30.022, 71.378 27.872, 68 28.123 C 67.175 28.184, 64.130 28.629, 61.233 29.111 M 94.607 33.868 C 89.210 39.343, 88.760 40.137, 89.270 43.277 C 89.802 46.553, 89.338 47.195, 78.913 57.586 C 72.911 63.570, 68 69.036, 68 69.733 C 68 73.012, 72.352 70.118, 82.226 60.274 C 91.937 50.593, 93.302 49.575, 96.243 49.822 C 99.052 50.057, 100.304 49.280, 105.343 44.175 L 111.185 38.255 106.753 37.590 C 102.445 36.944, 102.296 36.799, 101.411 32.407 L 100.500 27.888 94.607 33.868 M 62.734 42.088 C 54.020 44.141, 47.175 49.618, 42.862 57.988 C 39.704 64.117, 39.598 75.473, 42.637 82.089 C 45.178 87.621, 50.544 93.184, 56.277 96.231 C 62.342 99.455, 75.658 99.455, 81.723 96.231 C 90.714 91.453, 96.496 83.055, 97.680 73.055 C 98.314 67.700, 96.777 59.900, 94.350 56.156 L 92.830 53.811 90.504 55.996 C 88.321 58.047, 88.265 58.389, 89.589 61.559 C 92.821 69.295, 90.451 80.501, 84.376 86.197 C 72.833 97.021, 52.856 92.215, 47.980 77.440 C 46 71.439, 47.271 62.516, 50.805 57.618 C 56.658 49.505, 68.100 45.926, 76.698 49.518 C 80.158 50.964, 80.447 50.929, 82.733 48.781 L 85.133 46.526 83.055 44.844 C 80.904 43.101, 72.556 40.925, 68.701 41.100 C 67.490 41.156, 64.806 41.600, 62.734 42.088 M 62.500 55.412 C 50.706 60.653, 49.816 77.594, 61.004 83.882 C 73.660 90.995, 88.157 79.390, 84.354 65.190 L 83.735 62.879 80.868 65.627 C 79.156 67.267, 78 69.418, 78 70.965 C 78 76.860, 71.418 81.244, 65.960 78.984 C 61.896 77.300, 60 74.357, 60 69.732 C 60 64.991, 63.550 61, 67.767 61 C 69.609 61, 71.603 59.980, 73.373 58.132 L 76.121 55.265 73.810 54.646 C 70.156 53.667, 65.754 53.965, 62.500 55.412"
     stroke="none"
     fill="#000000"
     fill-rule="evenodd"
     id="path1" />
</svg>
